<svg xmlns="http://www.w3.org/2000/svg" xmlns:xlink="http://www.w3.org/1999/xlink" viewBox="0 0 128 128"><g transform="translate(1.325 2.139)" id="ss11646565298_1"><g><defs><path d="M 1.105 62.203 C 1.105 28.459 28.477 1.104 62.242 1.104 C 96.007 1.104 123.379 28.459 123.379 62.203 C 123.379 95.946 96.007 123.301 62.242 123.301 C 28.477 123.301 1.105 95.946 1.105 62.203 Z" id="a1024z"></path><filter id="a1026z" x="0.0%" y="-4.2%" width="99.9%" height="108.3%" filterUnits="objectBoundingBox"><feGaussianBlur stdDeviation="0" in="SourceAlpha" result="a1028z"></feGaussianBlur><feOffset dx="0" dy="-5.12" in="a1028z" result="a1029z"></feOffset><feComposite in="a1029z" in2="SourceAlpha" operator="arithmetic" k2="-1" k3="1" result="a1030z"></feComposite><feColorMatrix color-interpolation-filters="sRGB" values="0 0 0 0 0.615686274509804   0 0 0 0 0.3764705882352941   0 0 0 0 0  0 0 0 1 0" type="matrix" in="a1030z" result="a1031z"></feColorMatrix></filter></defs><use xlink:href="#a1024z" fill="rgb(253,226,73)" clip-path="url(#a1025z)"></use><use fill="black" fill-opacity="1" filter="url(#a1026z)" xlink:href="#a1024z"></use></g><g><defs><path d="M 0 62.203 C 0 27.849 27.867 0 62.242 0 C 96.617 0 124.483 27.849 124.483 62.203 C 124.483 96.556 96.617 124.405 62.242 124.405 C 27.867 124.405 0 96.556 0 62.203 Z" id="a1032z"></path><filter id="a1034z" x="0.0%" y="-4.1%" width="99.0%" height="107.2%" filterUnits="objectBoundingBox"><feGaussianBlur stdDeviation="0" in="SourceAlpha" result="a1036z"></feGaussianBlur><feOffset dx="0" dy="-5.12" in="a1036z" result="a1037z"></feOffset><feComposite in="a1037z" in2="SourceAlpha" operator="arithmetic" k2="-1" k3="1" result="a1038z"></feComposite><feColorMatrix color-interpolation-filters="sRGB" values="0 0 0 0 0.615686274509804   0 0 0 0 0.3764705882352941   0 0 0 0 0  0 0 0 1 0" type="matrix" in="a1038z" result="a1039z"></feColorMatrix></filter></defs><use xlink:href="#a1032z" fill="transparent" stroke-opacity="0"></use><use fill="black" fill-opacity="1" filter="url(#a1034z)" xlink:href="#a1032z"></use><use xlink:href="#a1032z" clip-path="url(#a1033z)" fill="transparent" stroke-width="2.49" stroke="rgb(145,86,0)" stroke-miterlimit="10"></use></g><g><defs><path d="M 80.554 43.955 C 82.165 42.338 83.585 40.547 84.726 38.949 L 85.305 40.035 C 87.171 43.75 88.141 47.45 88.141 51.615 L 88.138 58.223 L 88.172 61.648 C 88.306 70.059 90.136 78.567 94.278 86.354 L 85.611 79.399 L 79.48 89.302 L 73.038 83.267 L 62.744 99.892 L 52.449 83.267 L 46.007 89.302 L 39.876 79.4 L 31.209 86.355 C 35.352 78.568 37.18 70.059 37.315 61.649 L 37.35 58.224 L 37.346 51.615 C 37.346 47.45 38.315 43.75 40.181 40.035 L 40.761 38.95 C 41.902 40.547 43.321 42.338 44.932 43.956 L 44.429 44.996 C 43.451 47.015 43.127 49.273 43.889 51.422 C 44.38 52.805 45.275 53.991 46.43 54.897 C 47.552 55.776 48.878 56.369 50.267 56.68 C 51.172 56.883 52.094 56.967 53.011 56.938 C 52.797 58.144 52.703 59.395 52.698 60.669 L 44.523 65.368 L 50.832 68.887 C 51.335 69.168 51.815 69.49 52.266 69.85 C 57.467 74.498 60.594 88.245 62.743 94.96 C 64.892 88.245 68.018 74.498 73.219 69.85 C 73.67 69.491 74.15 69.168 74.655 68.887 L 80.963 65.368 L 72.787 60.669 C 72.782 59.395 72.688 58.144 72.474 56.938 C 73.391 56.967 74.313 56.883 75.218 56.68 C 76.607 56.369 77.935 55.776 79.056 54.897 C 80.21 53.991 81.105 52.805 81.596 51.422 C 82.358 49.274 82.034 47.016 81.057 44.996 Z" id="a1040z"></path><filter id="a1042z" x="0.0%" y="-8.4%" width="99.8%" height="116.6%" filterUnits="objectBoundingBox"><feGaussianBlur stdDeviation="0" in="SourceAlpha" result="a1044z"></feGaussianBlur><feOffset dx="0" dy="-5.12" in="a1044z" result="a1045z"></feOffset><feComposite in="a1045z" in2="SourceAlpha" operator="arithmetic" k2="-1" k3="1" result="a1046z"></feComposite><feColorMatrix color-interpolation-filters="sRGB" values="0 0 0 0 0.615686274509804   0 0 0 0 0.3764705882352941   0 0 0 0 0  0 0 0 1 0" type="matrix" in="a1046z" result="a1047z"></feColorMatrix></filter></defs><use xlink:href="#a1040z" fill="rgb(145,86,0)" clip-path="url(#a1041z)"></use><use fill="black" fill-opacity="1" filter="url(#a1042z)" xlink:href="#a1040z"></use></g><g><defs><path d="M 70.533 51.887 C 72.83 50.748 75.752 49.07 78.678 46.771 C 79.295 48.046 79.362 49.158 79.045 50.056 C 78.819 50.69 78.395 51.24 77.837 51.678 C 77.233 52.152 76.477 52.497 75.644 52.683 C 74.06 53.038 72.211 52.831 70.533 51.887 Z M 70.932 63.564 L 73.971 65.312 C 67.763 68.775 66.076 75.204 64.071 81.465 C 62.066 75.204 60.379 68.774 54.171 65.312 L 57.212 63.564 C 57.815 63.337 58.202 62.75 58.173 62.109 C 57.894 56.244 59.485 53.65 61.631 52.022 C 62.401 51.439 63.241 51.146 64.071 51.146 C 64.9 51.146 65.741 51.439 66.511 52.022 C 68.657 53.651 70.247 56.244 69.97 62.109 C 69.939 62.75 70.328 63.337 70.932 63.564 Z M 64.072 25.27 C 67.586 25.364 71.109 26.043 74.166 27.364 C 76.285 28.28 78.259 29.489 80.049 30.936 C 80.857 31.589 81.522 32.22 82.255 32.946 C 84.232 33.014 87.12 30.829 88.461 28.785 C 86.152 36.314 75.622 45.205 68.331 48.608 L 68.325 48.604 C 67.016 47.609 65.544 47.112 64.072 47.112 C 62.6 47.112 61.129 47.609 59.82 48.604 L 59.813 48.608 C 52.521 45.205 41.991 36.314 39.684 28.785 C 41.025 30.829 43.912 33.015 45.888 32.946 C 46.621 32.221 47.286 31.589 48.095 30.936 C 49.883 29.489 51.859 28.28 53.977 27.364 C 57.035 26.043 60.558 25.364 64.072 25.27 Z M 57.61 51.887 C 55.314 50.748 52.391 49.07 49.465 46.771 C 48.85 48.046 48.781 49.158 49.099 50.056 C 49.324 50.69 49.749 51.24 50.306 51.678 C 50.911 52.152 51.666 52.497 52.5 52.683 C 54.083 53.038 55.932 52.831 57.61 51.887 Z" id="a1048z"></path><filter id="a1050z" x="0.0%" y="-9.1%" width="99.8%" height="118.0%" filterUnits="objectBoundingBox"><feGaussianBlur stdDeviation="0" in="SourceAlpha" result="a1052z"></feGaussianBlur><feOffset dx="0" dy="-5.12" in="a1052z" result="a1053z"></feOffset><feComposite in="a1053z" in2="SourceAlpha" operator="arithmetic" k2="-1" k3="1" result="a1054z"></feComposite><feColorMatrix color-interpolation-filters="sRGB" values="0 0 0 0 0.615686274509804   0 0 0 0 0.3764705882352941   0 0 0 0 0  0 0 0 1 0" type="matrix" in="a1054z" result="a1055z"></feColorMatrix></filter></defs><use xlink:href="#a1048z" fill="rgb(145,86,0)" clip-path="url(#a1049z)"></use><use fill="black" fill-opacity="1" filter="url(#a1050z)" xlink:href="#a1048z"></use></g></g></svg>