<svg xmlns="http://www.w3.org/2000/svg" xmlns:xlink="http://www.w3.org/1999/xlink" viewBox="0 0 128 128"><g transform="translate(1.297 2.139)" id="ss12037368165_1"><g><defs><path d="M 1.105 62.203 C 1.105 28.459 28.477 1.104 62.242 1.104 C 96.007 1.104 123.379 28.459 123.379 62.203 C 123.379 95.946 96.007 123.301 62.242 123.301 C 28.477 123.301 1.105 95.946 1.105 62.203 Z" id="a1056z"></path><filter id="a1058z" x="0.0%" y="-4.2%" width="99.9%" height="108.3%" filterUnits="objectBoundingBox"><feGaussianBlur stdDeviation="0" in="SourceAlpha" result="a1060z"></feGaussianBlur><feOffset dx="0" dy="-5.12" in="a1060z" result="a1061z"></feOffset><feComposite in="a1061z" in2="SourceAlpha" operator="arithmetic" k2="-1" k3="1" result="a1062z"></feComposite><feColorMatrix color-interpolation-filters="sRGB" values="0 0 0 0 0.5529411764705883   0 0 0 0 0.3411764705882353   0 0 0 0 0  0 0 0 1 0" type="matrix" in="a1062z" result="a1063z"></feColorMatrix></filter></defs><use xlink:href="#a1056z" fill="rgb(253,226,73)" clip-path="url(#a1057z)"></use><use fill="black" fill-opacity="1" filter="url(#a1058z)" xlink:href="#a1056z"></use></g><g><defs><path d="M 0 62.203 C 0 27.849 27.867 0 62.242 0 C 96.617 0 124.483 27.849 124.483 62.203 C 124.483 96.556 96.617 124.405 62.242 124.405 C 27.867 124.405 0 96.556 0 62.203 Z" id="a1064z"></path><filter id="a1066z" x="0.0%" y="-4.1%" width="99.0%" height="107.2%" filterUnits="objectBoundingBox"><feGaussianBlur stdDeviation="0" in="SourceAlpha" result="a1068z"></feGaussianBlur><feOffset dx="0" dy="-5.12" in="a1068z" result="a1069z"></feOffset><feComposite in="a1069z" in2="SourceAlpha" operator="arithmetic" k2="-1" k3="1" result="a1070z"></feComposite><feColorMatrix color-interpolation-filters="sRGB" values="0 0 0 0 0.5529411764705883   0 0 0 0 0.3411764705882353   0 0 0 0 0  0 0 0 1 0" type="matrix" in="a1070z" result="a1071z"></feColorMatrix></filter></defs><use xlink:href="#a1064z" fill="transparent" stroke-opacity="0"></use><use fill="black" fill-opacity="1" filter="url(#a1066z)" xlink:href="#a1064z"></use><use xlink:href="#a1064z" clip-path="url(#a1065z)" fill="transparent" stroke-width="2.49" stroke="rgb(145,86,0)" stroke-miterlimit="10"></use></g><g><defs><path d="M 94.193 35.934 L 84.494 90.441 C 83.762 94.288 81.854 95.245 79.142 93.433 L 64.364 80.456 L 57.233 88.629 C 56.444 89.569 55.784 90.355 54.263 90.355 L 55.325 72.42 L 82.715 42.927 C 83.906 41.662 82.457 40.961 80.864 42.226 L 47.003 67.633 L 32.426 62.196 C 29.255 61.016 29.198 58.417 33.086 56.605 L 90.104 30.429 C 92.744 29.249 95.054 31.129 94.193 35.934 Z" id="a1072z"></path><filter id="a1074z" x="0.0%" y="-8.0%" width="99.8%" height="115.8%" filterUnits="objectBoundingBox"><feGaussianBlur stdDeviation="0" in="SourceAlpha" result="a1076z"></feGaussianBlur><feOffset dx="0" dy="-5.12" in="a1076z" result="a1077z"></feOffset><feComposite in="a1077z" in2="SourceAlpha" operator="arithmetic" k2="-1" k3="1" result="a1078z"></feComposite><feColorMatrix color-interpolation-filters="sRGB" values="0 0 0 0 0.5529411764705883   0 0 0 0 0.3411764705882353   0 0 0 0 0  0 0 0 1 0" type="matrix" in="a1078z" result="a1079z"></feColorMatrix></filter></defs><use xlink:href="#a1072z" fill="rgb(145,86,0)" clip-path="url(#a1073z)"></use><use fill="black" fill-opacity="1" filter="url(#a1074z)" xlink:href="#a1072z"></use></g></g></svg>