<svg xmlns="http://www.w3.org/2000/svg" xmlns:xlink="http://www.w3.org/1999/xlink" viewBox="0 0 128 128"><g transform="translate(1.822 2.139)" id="ss12080186129_1"><g><defs><path d="M 1.105 62.203 C 1.105 28.459 28.477 1.104 62.242 1.104 C 96.007 1.104 123.379 28.459 123.379 62.203 C 123.379 95.946 96.007 123.301 62.242 123.301 C 28.477 123.301 1.105 95.946 1.105 62.203 Z" id="a1000z"></path><filter id="a1002z" x="0.0%" y="-4.2%" width="99.9%" height="108.3%" filterUnits="objectBoundingBox"><feGaussianBlur stdDeviation="0" in="SourceAlpha" result="a1004z"></feGaussianBlur><feOffset dx="0" dy="-5.12" in="a1004z" result="a1005z"></feOffset><feComposite in="a1005z" in2="SourceAlpha" operator="arithmetic" k2="-1" k3="1" result="a1006z"></feComposite><feColorMatrix color-interpolation-filters="sRGB" values="0 0 0 0 0.615686274509804   0 0 0 0 0.3764705882352941   0 0 0 0 0  0 0 0 1 0" type="matrix" in="a1006z" result="a1007z"></feColorMatrix></filter></defs><use xlink:href="#a1000z" fill="rgb(253,226,73)" clip-path="url(#a1001z)"></use><use fill="black" fill-opacity="1" filter="url(#a1002z)" xlink:href="#a1000z"></use></g><g><defs><path d="M 0 62.203 C 0 27.849 27.867 0 62.242 0 C 96.617 0 124.483 27.849 124.483 62.203 C 124.483 96.556 96.617 124.405 62.242 124.405 C 27.867 124.405 0 96.556 0 62.203 Z" id="a1008z"></path><filter id="a1010z" x="0.0%" y="-4.1%" width="99.0%" height="107.2%" filterUnits="objectBoundingBox"><feGaussianBlur stdDeviation="0" in="SourceAlpha" result="a1012z"></feGaussianBlur><feOffset dx="0" dy="-5.12" in="a1012z" result="a1013z"></feOffset><feComposite in="a1013z" in2="SourceAlpha" operator="arithmetic" k2="-1" k3="1" result="a1014z"></feComposite><feColorMatrix color-interpolation-filters="sRGB" values="0 0 0 0 0.615686274509804   0 0 0 0 0.3764705882352941   0 0 0 0 0  0 0 0 1 0" type="matrix" in="a1014z" result="a1015z"></feColorMatrix></filter></defs><use xlink:href="#a1008z" fill="transparent" stroke-opacity="0"></use><use fill="black" fill-opacity="1" filter="url(#a1010z)" xlink:href="#a1008z"></use><use xlink:href="#a1008z" clip-path="url(#a1009z)" fill="transparent" stroke-width="2.49" stroke="rgb(145,86,0)" stroke-miterlimit="10"></use></g><g><defs><path d="M 68.056 58.187 L 90.814 31.653 L 85.42 31.653 L 65.664 54.691 L 49.878 31.653 L 31.673 31.653 L 55.542 66.495 L 31.673 94.318 L 37.066 94.318 L 57.932 69.986 L 74.604 94.318 L 92.809 94.318 Z M 60.67 66.799 L 58.251 63.33 L 39.008 35.726 L 47.293 35.726 L 62.819 58.004 L 65.237 61.473 L 85.425 90.433 L 77.14 90.433 Z" id="a1016z"></path><filter id="a1018z" x="0.0%" y="-8.2%" width="99.8%" height="116.2%" filterUnits="objectBoundingBox"><feGaussianBlur stdDeviation="0" in="SourceAlpha" result="a1020z"></feGaussianBlur><feOffset dx="0" dy="-5.12" in="a1020z" result="a1021z"></feOffset><feComposite in="a1021z" in2="SourceAlpha" operator="arithmetic" k2="-1" k3="1" result="a1022z"></feComposite><feColorMatrix color-interpolation-filters="sRGB" values="0 0 0 0 0.615686274509804   0 0 0 0 0.3764705882352941   0 0 0 0 0  0 0 0 1 0" type="matrix" in="a1022z" result="a1023z"></feColorMatrix></filter></defs><use xlink:href="#a1016z" fill="rgb(145,86,0)" clip-path="url(#a1017z)"></use><use fill="black" fill-opacity="1" filter="url(#a1018z)" xlink:href="#a1016z"></use></g></g></svg>